<svg width="165" height="220" xmlns="http://www.w3.org/2000/svg" xmlns:xlink="http://www.w3.org/1999/xlink" xml:space="preserve" overflow="hidden"><g transform="translate(-1377 -445)"><path d="M1378.5 453.031C1390.01 450.831 1401.52 448.631 1412.42 448.505 1423.31 448.379 1435.75 450.705 1443.89 452.277 1452.03 453.849 1453.88 454.163 1461.26 457.935 1468.63 461.707 1479.57 468.875 1488.12 474.91 1496.66 480.946 1504.31 488.05 1512.54 494.148 1520.77 500.246 1531.98 508.294 1537.5 511.5" stroke="#A8783D" stroke-width="6.875" stroke-miterlimit="8" fill="none" fill-rule="evenodd"/><path d="M1378.5 553.5 1537.49 553.5" stroke="#3B4148" stroke-width="6.875" stroke-miterlimit="8" fill="none" fill-rule="evenodd"/><path d="M1386.5 655.023C1394.45 657.217 1402.41 659.411 1409.05 660.46 1415.69 661.51 1420.26 661.7 1426.35 661.319 1432.45 660.937 1437.53 660.556 1445.6 658.171 1453.67 655.786 1465.85 651.923 1474.76 647.011 1483.67 642.099 1489.89 636.185 1499.06 628.697 1508.23 621.209 1529.78 602.085 1529.78 602.085L1539.5 593.5" stroke="#0F5C63" stroke-width="6.875" stroke-miterlimit="8" fill="none" fill-rule="evenodd"/></g></svg>