<svg width="898" height="331" xmlns="http://www.w3.org/2000/svg" xmlns:xlink="http://www.w3.org/1999/xlink" xml:space="preserve" overflow="hidden"><g transform="translate(-1904 -2043)"><path d="M1904.5 2054.12C1956.67 2046.73 2008.85 2039.34 2077.94 2059.76 2147.04 2080.18 2243.16 2155.3 2319.07 2176.67 2394.98 2198.03 2453.5 2188.4 2533.4 2187.94 2613.31 2187.47 2705.9 2180.66 2798.5 2173.85" stroke="#A8783D" stroke-width="6.875" stroke-miterlimit="8" fill="none" fill-rule="evenodd"/><path d="M1905.5 2361.22C1937.34 2366.7 1969.19 2372.17 2002.5 2370.02 2035.81 2367.87 2075.11 2359.27 2105.38 2348.32 2135.66 2337.37 2151.24 2322.12 2184.16 2304.33 2217.08 2286.54 2264.99 2254.77 2302.91 2241.58 2340.83 2228.38 2376.01 2227.5 2411.67 2225.16 2447.34 2222.81 2516.9 2227.5 2516.9 2227.5L2798.5 2241.58" stroke="#0F5C63" stroke-width="6.875" stroke-miterlimit="8" fill="none" fill-rule="evenodd"/><path d="M1904.5 2207.5 2798.44 2207.5" stroke="#3B4148" stroke-width="6.875" stroke-miterlimit="8" fill="none" fill-rule="evenodd"/></g></svg>