<svg width="898" height="722" xmlns="http://www.w3.org/2000/svg" xmlns:xlink="http://www.w3.org/1999/xlink" xml:space="preserve" overflow="hidden"><g transform="translate(-1672 -722)"><path d="M1960.23 1140.06C1948.62 1091.75 1947.95 1041.17 1958.29 992.529" stroke="#3B4148" stroke-width="50.4167" stroke-miterlimit="8" fill="none" fill-rule="evenodd"/><path d="M1965.43 964.845C2015.67 799.938 2181.56 709.751 2335.97 763.408 2366.59 774.05 2395.37 789.993 2421.15 810.601" stroke="#1F2328" stroke-width="50.4167" stroke-miterlimit="8" fill="none" fill-rule="evenodd"/><path d="M2421.28 1313.3C2291.33 1417.28 2107.06 1389.06 2009.71 1250.27 1992.62 1225.91 1978.94 1199.03 1969.1 1170.46" stroke="#1F2328" stroke-width="50.4167" stroke-miterlimit="8" fill="none" fill-rule="evenodd"/><path d="M1672.5 915.125C1724.67 907.73 1776.85 900.335 1845.94 920.759 1915.04 941.183 2011.16 1016.3 2087.07 1037.67 2162.98 1059.03 2221.5 1049.41 2301.4 1048.94 2381.31 1048.47 2473.9 1041.66 2566.5 1034.85" stroke="#A8783D" stroke-width="6.875" stroke-miterlimit="8" fill="none" fill-rule="evenodd"/><path d="M1673.5 1221.22C1705.34 1226.7 1737.19 1232.17 1770.5 1230.02 1803.81 1227.87 1843.11 1219.27 1873.38 1208.32 1903.66 1197.37 1919.24 1182.12 1952.16 1164.33 1985.08 1146.54 2032.99 1114.77 2070.91 1101.58 2108.83 1088.38 2144.01 1087.5 2179.67 1085.16 2215.34 1082.81 2284.9 1087.5 2284.9 1087.5L2566.5 1101.58" stroke="#0F5C63" stroke-width="6.875" stroke-miterlimit="8" fill="none" fill-rule="evenodd"/><path d="M1672.5 1067.5 2566.44 1067.5" stroke="#3B4148" stroke-width="6.875" stroke-miterlimit="8" fill="none" fill-rule="evenodd"/></g></svg>